<svg id="kity_svg_6" xmlns="http://www.w3.org/2000/svg" xmlns:xlink="http://www.w3.org/1999/xlink" version="1.1" width="1573" height="1579" style="background: rgb(251, 251, 251); visibility: visible;" viewBox="0 0 1573 1579"><defs id="kity_defs_7"><linearGradient id="kity_linearGradient_17" x1="0" y1="0" x2="0" y2="1"><stop id="kity_stop_18" offset="0" stop-color="rgb(255, 255, 255)"></stop><stop id="kity_stop_19" offset="1" stop-color="rgb(204, 204, 204)"></stop></linearGradient><marker id="kity_marker_2" orient="auto" refX="6" refY="0" viewBox="-7 -7 14 14" markerWidth="7" markerHeight="7" markerUnits="userSpaceOnUse"><path id="kity_path_3" fill="rgb(115, 161, 191)" stroke="none" d="M6,0A6,6,0,1,1,-6,0A6,6,0,1,1,6,0"></path></marker></defs><g id="kity_g_8"><g id="minder1" text-rendering="optimize-speed"><g id="minder_connect_group1"><path id="kity_path_31" fill="none" stroke="rgb(115, 161, 191)" stroke-width="1" d="M746.5000524930656,826.5000637583435A236,593,0,0,0,510.5000524930656,233.50006375834346"></path><path id="kity_path_33" fill="none" stroke="rgb(115, 161, 191)" stroke-width="1" d="M452.5000524930656,233.50006375834346C412.0000524930656,233.50006375834346,412.0000524930656,175.50006375834346,371.5000524930656,175.50006375834346L304.5000524930656,175.50006375834346"></path><path id="kity_path_35" fill="none" stroke="rgb(115, 161, 191)" stroke-width="1" d="M304.5000524930656,175.50006375834346C255.0000524930656,175.50006375834346,255.0000524930656,72.50006375834346,205.5000524930656,72.50006375834346L150.5000524930656,72.50006375834346"></path><path id="kity_path_37" fill="none" stroke="rgb(115, 161, 191)" stroke-width="1" d="M150.5000524930656,72.50006375834346C115.5000524930656,72.50006375834346,115.5000524930656,45.50006375834346,80.5000524930656,45.50006375834346L27.500052493065596,45.50006375834346"></path><path id="kity_path_39" fill="none" stroke="rgb(115, 161, 191)" stroke-width="1" d="M150.5000524930656,72.50006375834346C114.0000524930656,72.50006375834346,114.0000524930656,93.50006375834346,77.5000524930656,93.50006375834346L26.500052493065596,93.50006375834346"></path><path id="kity_path_41" fill="none" stroke="rgb(115, 161, 191)" stroke-width="1" d="M304.5000524930656,175.50006375834346C267.5000524930656,175.50006375834346,267.5000524930656,130.50006375834346,230.5000524930656,130.50006375834346L139.5000524930656,130.50006375834346"></path><path id="kity_path_43" fill="none" stroke="rgb(115, 161, 191)" stroke-width="1" d="M304.5000524930656,175.50006375834346C270.0000524930656,175.50006375834346,270.0000524930656,186.50006375834346,235.5000524930656,186.50006375834346L144.5000524930656,186.50006375834346"></path><path id="kity_path_45" fill="none" stroke="rgb(115, 161, 191)" stroke-width="1" d="M144.5000524930656,186.50006375834346C119.5000524930656,186.50006375834346,119.5000524930656,162.50006375834346,94.5000524930656,162.50006375834346L24.500052493065596,162.50006375834346"></path><path id="kity_path_47" fill="none" stroke="rgb(115, 161, 191)" stroke-width="1" d="M144.5000524930656,186.50006375834346C117.0000524930656,186.50006375834346,117.0000524930656,206.50006375834346,89.5000524930656,206.50006375834346L21.500052493065596,206.50006375834346"></path><path id="kity_path_49" fill="none" stroke="rgb(115, 161, 191)" stroke-width="1" d="M304.5000524930656,175.50006375834346C256.0000524930656,175.50006375834346,256.0000524930656,237.50006375834346,207.5000524930656,237.50006375834346L152.5000524930656,237.50006375834346"></path><path id="kity_path_51" fill="none" stroke="rgb(115, 161, 191)" stroke-width="1" d="M452.5000524930656,233.50006375834346C409.0000524930656,233.50006375834346,409.0000524930656,272.50006375834346,365.5000524930656,272.50006375834346L297.5000524930656,272.50006375834346"></path><path id="kity_path_53" fill="none" stroke="rgb(115, 161, 191)" stroke-width="1" d="M297.5000524930656,272.50006375834346C266.5000524930656,272.50006375834346,266.5000524930656,283.50006375834346,235.5000524930656,283.50006375834346L144.5000524930656,283.50006375834346"></path><path id="kity_path_55" fill="none" stroke="rgb(115, 161, 191)" stroke-width="1" d="M746.5000524930656,826.5000637583435A242,460,0,0,0,504.5000524930656,366.50006375834346"></path><path id="kity_path_57" fill="none" stroke="rgb(115, 161, 191)" stroke-width="1" d="M448.5000524930656,366.50006375834346C389.0000524930656,366.50006375834346,389.0000524930656,366.50006375834346,329.5000524930656,366.50006375834346L118.5000524930656,366.50006375834346"></path><path id="kity_path_59" fill="none" stroke="rgb(115, 161, 191)" stroke-width="1" d="M746.5000524930656,826.5000637583435A205,297,0,0,0,541.5000524930656,529.5000637583435"></path><path id="kity_path_61" fill="none" stroke="rgb(115, 161, 191)" stroke-width="1" d="M427.5000524930656,529.5000637583435C412.5000524930656,529.5000637583435,412.5000524930656,439.50006375834346,397.5000524930656,439.50006375834346L318.5000524930656,439.50006375834346"></path><path id="kity_path_63" fill="none" stroke="rgb(115, 161, 191)" stroke-width="1" d="M427.5000524930656,529.5000637583435C412.5000524930656,529.5000637583435,412.5000524930656,491.50006375834346,397.5000524930656,491.50006375834346L317.5000524930656,491.50006375834346"></path><path id="kity_path_65" fill="none" stroke="rgb(115, 161, 191)" stroke-width="1" d="M427.5000524930656,529.5000637583435C412.5000524930656,529.5000637583435,412.5000524930656,543.5000637583435,397.5000524930656,543.5000637583435L317.5000524930656,543.5000637583435"></path><path id="kity_path_67" fill="none" stroke="rgb(115, 161, 191)" stroke-width="1" d="M427.5000524930656,529.5000637583435C412.5000524930656,529.5000637583435,412.5000524930656,595.5000637583435,397.5000524930656,595.5000637583435L303.5000524930656,595.5000637583435"></path><path id="kity_path_69" fill="none" stroke="rgb(115, 161, 191)" stroke-width="1" d="M427.5000524930656,529.5000637583435C412.5000524930656,529.5000637583435,412.5000524930656,647.5000637583435,397.5000524930656,647.5000637583435L293.5000524930656,647.5000637583435"></path><path id="kity_path_71" fill="none" stroke="rgb(115, 161, 191)" stroke-width="1" d="M746.5000524930656,826.5000637583435A216,92,0,0,0,530.5000524930656,734.5000637583435"></path><path id="kity_path_73" fill="none" stroke="rgb(115, 161, 191)" stroke-width="1" d="M431.5000524930656,734.5000637583435C416.5000524930656,734.5000637583435,416.5000524930656,696.5000637583435,401.5000524930656,696.5000637583435L345.5000524930656,696.5000637583435"></path><path id="kity_path_75" fill="none" stroke="rgb(115, 161, 191)" stroke-width="1" d="M431.5000524930656,734.5000637583435C416.5000524930656,734.5000637583435,416.5000524930656,748.5000637583435,401.5000524930656,748.5000637583435L345.5000524930656,748.5000637583435"></path><path id="kity_path_77" fill="none" stroke="rgb(115, 161, 191)" stroke-width="1" d="M431.5000524930656,734.5000637583435C416.5000524930656,734.5000637583435,416.5000524930656,800.5000637583435,401.5000524930656,800.5000637583435L250.5000524930656,800.5000637583435"></path><path id="kity_path_79" fill="none" stroke="rgb(115, 161, 191)" stroke-width="1" d="M746.5000524930656,826.5000637583435A218,61,0,0,1,528.5000524930656,887.5000637583435"></path><path id="kity_path_81" fill="none" stroke="rgb(115, 161, 191)" stroke-width="1" d="M428.5000524930656,887.5000637583435C419.5000524930656,887.5000637583435,419.5000524930656,859.5000637583435,410.5000524930656,859.5000637583435L295.5000524930656,859.5000637583435"></path><path id="kity_path_83" fill="none" stroke="rgb(115, 161, 191)" stroke-width="1" d="M428.5000524930656,887.5000637583435C418.0000524930656,887.5000637583435,418.0000524930656,913.5000637583435,407.5000524930656,913.5000637583435L280.5000524930656,913.5000637583435"></path><path id="kity_path_85" fill="none" stroke="rgb(115, 161, 191)" stroke-width="1" d="M746.5000524930656,826.5000637583435A212,231,0,0,1,534.5000524930656,1057.5000637583435"></path><path id="kity_path_87" fill="none" stroke="rgb(115, 161, 191)" stroke-width="1" d="M436.5000524930656,1057.5000637583435C421.5000524930656,1057.5000637583435,421.5000524930656,967.5000637583435,406.5000524930656,967.5000637583435L254.5000524930656,967.5000637583435"></path><path id="kity_path_89" fill="none" stroke="rgb(115, 161, 191)" stroke-width="1" d="M436.5000524930656,1057.5000637583435C421.5000524930656,1057.5000637583435,421.5000524930656,1019.5000637583435,406.5000524930656,1019.5000637583435L263.5000524930656,1019.5000637583435"></path><path id="kity_path_91" fill="none" stroke="rgb(115, 161, 191)" stroke-width="1" d="M436.5000524930656,1057.5000637583435C421.5000524930656,1057.5000637583435,421.5000524930656,1071.5000637583435,406.5000524930656,1071.5000637583435L314.5000524930656,1071.5000637583435"></path><path id="kity_path_93" fill="none" stroke="rgb(115, 161, 191)" stroke-width="1" d="M314.5000524930656,1071.5000637583435C299.5000524930656,1071.5000637583435,299.5000524930656,1071.5000637583435,284.5000524930656,1071.5000637583435L132.5000524930656,1071.5000637583435"></path><path id="kity_path_95" fill="none" stroke="rgb(115, 161, 191)" stroke-width="1" d="M436.5000524930656,1057.5000637583435C421.5000524930656,1057.5000637583435,421.5000524930656,1123.5000637583435,406.5000524930656,1123.5000637583435L315.5000524930656,1123.5000637583435"></path><path id="kity_path_97" fill="none" stroke="rgb(115, 161, 191)" stroke-width="1" d="M436.5000524930656,1057.5000637583435C421.5000524930656,1057.5000637583435,421.5000524930656,1175.5000637583435,406.5000524930656,1175.5000637583435L302.5000524930656,1175.5000637583435"></path><path id="kity_path_99" fill="none" stroke="rgb(115, 161, 191)" stroke-width="1" d="M746.5000524930656,826.5000637583435A224,428,0,0,1,522.5000524930656,1254.5000637583435"></path><path id="kity_path_101" fill="none" stroke="rgb(115, 161, 191)" stroke-width="1" d="M436.5000524930656,1254.5000637583435C414.0000524930656,1254.5000637583435,414.0000524930656,1257.5000637583435,391.5000524930656,1257.5000637583435L191.5000524930656,1257.5000637583435"></path><path id="kity_path_103" fill="none" stroke="rgb(115, 161, 191)" stroke-width="1" d="M746.5000524930656,826.5000637583435A209,541,0,0,1,537.5000524930656,1367.5000637583435"></path><path id="kity_path_105" fill="none" stroke="rgb(115, 161, 191)" stroke-width="1" d="M423.5000524930656,1367.5000637583435C408.5000524930656,1367.5000637583435,408.5000524930656,1329.5000637583435,393.5000524930656,1329.5000637583435L240.5000524930656,1329.5000637583435"></path><path id="kity_path_107" fill="none" stroke="rgb(115, 161, 191)" stroke-width="1" d="M423.5000524930656,1367.5000637583435C408.5000524930656,1367.5000637583435,408.5000524930656,1381.5000637583435,393.5000524930656,1381.5000637583435L278.5000524930656,1381.5000637583435"></path><path id="kity_path_109" fill="none" stroke="rgb(115, 161, 191)" stroke-width="1" d="M423.5000524930656,1367.5000637583435C408.5000524930656,1367.5000637583435,408.5000524930656,1433.5000637583435,393.5000524930656,1433.5000637583435L117.5000524930656,1433.5000637583435"></path><path id="kity_path_111" fill="none" stroke="rgb(115, 161, 191)" stroke-width="1" d="M746.5000524930656,826.5000637583435A222,693,0,0,1,524.5000524930656,1519.5000637583435"></path><path id="kity_path_113" fill="none" stroke="rgb(115, 161, 191)" stroke-width="1" d="M455.5000524930656,1519.5000637583435C440.5000524930656,1519.5000637583435,440.5000524930656,1507.5000637583435,425.5000524930656,1507.5000637583435L270.5000524930656,1507.5000637583435"></path><path id="kity_path_115" fill="none" stroke="rgb(115, 161, 191)" stroke-width="1" d="M455.5000524930656,1519.5000637583435C440.5000524930656,1519.5000637583435,440.5000524930656,1559.5000637583435,425.5000524930656,1559.5000637583435L232.5000524930656,1559.5000637583435"></path><path id="kity_path_117" fill="none" stroke="rgb(115, 161, 191)" stroke-width="1" d="M746.5000524930656,826.5000637583435A172,625,0,0,1,918.5000524930656,201.50006375834346"></path><path id="kity_path_119" fill="none" stroke="rgb(115, 161, 191)" stroke-width="1" d="M989.5000524930656,201.50006375834346C1004.5000524930656,201.50006375834346,1004.5000524930656,111.50006375834346,1019.5000524930656,111.50006375834346L1143.5000524930656,111.50006375834346"></path><path id="kity_path_121" fill="none" stroke="rgb(115, 161, 191)" stroke-width="1" d="M989.5000524930656,201.50006375834346C1004.5000524930656,201.50006375834346,1004.5000524930656,163.50006375834346,1019.5000524930656,163.50006375834346L1200.5000524930656,163.50006375834346"></path><path id="kity_path_123" fill="none" stroke="rgb(115, 161, 191)" stroke-width="1" d="M989.5000524930656,201.50006375834346C1004.5000524930656,201.50006375834346,1004.5000524930656,215.50006375834346,1019.5000524930656,215.50006375834346L1128.5000524930656,215.50006375834346"></path><path id="kity_path_125" fill="none" stroke="rgb(115, 161, 191)" stroke-width="1" d="M989.5000524930656,201.50006375834346C1004.5000524930656,201.50006375834346,1004.5000524930656,267.50006375834346,1019.5000524930656,267.50006375834346L1187.5000524930656,267.50006375834346"></path><path id="kity_path_127" fill="none" stroke="rgb(115, 161, 191)" stroke-width="1" d="M989.5000524930656,201.50006375834346C1004.5000524930656,201.50006375834346,1004.5000524930656,319.50006375834346,1019.5000524930656,319.50006375834346L1104.5000524930656,319.50006375834346"></path><path id="kity_path_129" fill="none" stroke="rgb(115, 161, 191)" stroke-width="1" d="M746.5000524930656,826.5000637583435A179,248,0,0,1,925.5000524930656,578.5000637583435"></path><path id="kity_path_131" fill="none" stroke="rgb(115, 161, 191)" stroke-width="1" d="M1011.5000524930656,578.5000637583435C1034.5000524930656,578.5000637583435,1034.5000524930656,496.50006375834346,1057.5000524930656,496.50006375834346L1148.5000524930656,496.50006375834346"></path><path id="kity_path_133" fill="none" stroke="rgb(115, 161, 191)" stroke-width="1" d="M1148.5000524930656,496.50006375834346C1177.5000524930656,496.50006375834346,1177.5000524930656,315.50006375834346,1206.5000524930656,315.50006375834346L1493.5000524930656,315.50006375834346"></path><path id="kity_path_135" fill="none" stroke="rgb(115, 161, 191)" stroke-width="1" d="M1148.5000524930656,496.50006375834346C1184.5000524930656,496.50006375834346,1184.5000524930656,362.50006375834346,1220.5000524930656,362.50006375834346L1554.5000524930656,362.50006375834346"></path><path id="kity_path_137" fill="none" stroke="rgb(115, 161, 191)" stroke-width="1" d="M1148.5000524930656,496.50006375834346C1182.5000524930656,496.50006375834346,1182.5000524930656,410.50006375834346,1216.5000524930656,410.50006375834346L1444.5000524930656,410.50006375834346"></path><path id="kity_path_139" fill="none" stroke="rgb(115, 161, 191)" stroke-width="1" d="M1148.5000524930656,496.50006375834346C1193.0000524930656,496.50006375834346,1193.0000524930656,463.50006375834346,1237.5000524930656,463.50006375834346L1384.5000524930656,463.50006375834346"></path><path id="kity_path_141" fill="none" stroke="rgb(115, 161, 191)" stroke-width="1" d="M1148.5000524930656,496.50006375834346C1200.0000524930656,496.50006375834346,1200.0000524930656,513.5000637583435,1251.5000524930656,513.5000637583435L1422.5000524930656,513.5000637583435"></path><path id="kity_path_143" fill="none" stroke="rgb(115, 161, 191)" stroke-width="1" d="M1011.5000524930656,578.5000637583435C1036.0000524930656,578.5000637583435,1036.0000524930656,613.5000637583435,1060.5000524930656,613.5000637583435L1152.5000524930656,613.5000637583435"></path><path id="kity_path_145" fill="none" stroke="rgb(115, 161, 191)" stroke-width="1" d="M1152.5000524930656,613.5000637583435C1178.5000524930656,613.5000637583435,1178.5000524930656,572.5000637583435,1204.5000524930656,572.5000637583435L1311.5000524930656,572.5000637583435"></path><path id="kity_path_147" fill="none" stroke="rgb(115, 161, 191)" stroke-width="1" d="M1152.5000524930656,613.5000637583435C1172.0000524930656,613.5000637583435,1172.0000524930656,630.5000637583435,1191.5000524930656,630.5000637583435L1346.5000524930656,630.5000637583435"></path><path id="kity_path_149" fill="none" stroke="rgb(115, 161, 191)" stroke-width="1" d="M746.5000524930656,826.5000637583435A182,138,0,0,1,928.5000524930656,688.5000637583435"></path><path id="kity_path_151" fill="none" stroke="rgb(115, 161, 191)" stroke-width="1" d="M1000.5000524930656,688.5000637583435C1015.5000524930656,688.5000637583435,1015.5000524930656,676.5000637583435,1030.5000524930656,676.5000637583435L1109.5000524930656,676.5000637583435"></path><path id="kity_path_153" fill="none" stroke="rgb(115, 161, 191)" stroke-width="1" d="M1000.5000524930656,688.5000637583435C1015.5000524930656,688.5000637583435,1015.5000524930656,728.5000637583435,1030.5000524930656,728.5000637583435L1199.5000524930656,728.5000637583435"></path><path id="kity_path_155" fill="none" stroke="rgb(115, 161, 191)" stroke-width="1" d="M746.5000524930656,826.5000637583435A183,31,0,0,1,929.5000524930656,795.5000637583435"></path><path id="kity_path_157" fill="none" stroke="rgb(115, 161, 191)" stroke-width="1" d="M1001.5000524930656,795.5000637583435C1016.5000524930656,795.5000637583435,1016.5000524930656,783.5000637583435,1031.5000524930656,783.5000637583435L1109.5000524930656,783.5000637583435"></path><path id="kity_path_159" fill="none" stroke="rgb(115, 161, 191)" stroke-width="1" d="M1001.5000524930656,795.5000637583435C1016.5000524930656,795.5000637583435,1016.5000524930656,835.5000637583435,1031.5000524930656,835.5000637583435L1199.5000524930656,835.5000637583435"></path><path id="kity_path_161" fill="none" stroke="rgb(115, 161, 191)" stroke-width="1" d="M746.5000524930656,826.5000637583435A191,68,0,0,0,937.5000524930656,894.5000637583435"></path><path id="kity_path_163" fill="none" stroke="rgb(115, 161, 191)" stroke-width="1" d="M995.5000524930656,894.5000637583435C1010.5000524930656,894.5000637583435,1010.5000524930656,908.5000637583435,1025.5000524930656,908.5000637583435L1104.5000524930656,908.5000637583435"></path><path id="kity_path_165" fill="none" stroke="rgb(115, 161, 191)" stroke-width="1" d="M746.5000524930656,826.5000637583435A190,151,0,0,0,936.5000524930656,977.5000637583435"></path><path id="kity_path_167" fill="none" stroke="rgb(115, 161, 191)" stroke-width="1" d="M1006.5000524930656,977.5000637583435C1021.5000524930656,977.5000637583435,1021.5000524930656,991.5000637583435,1036.5000524930656,991.5000637583435L1115.5000524930656,991.5000637583435"></path><path id="kity_path_169" fill="none" stroke="rgb(115, 161, 191)" stroke-width="1" d="M746.5000524930656,826.5000637583435A186,247,0,0,0,932.5000524930656,1073.5000637583435"></path><path id="kity_path_171" fill="none" stroke="rgb(115, 161, 191)" stroke-width="1" d="M1003.5000524930656,1073.5000637583435C1018.5000524930656,1073.5000637583435,1018.5000524930656,1087.5000637583435,1033.5000524930656,1087.5000637583435L1197.5000524930656,1087.5000637583435"></path><path id="kity_path_173" fill="none" stroke="rgb(115, 161, 191)" stroke-width="1" d="M746.5000524930656,826.5000637583435A187,349,0,0,0,933.5000524930656,1175.5000637583435"></path><path id="kity_path_175" fill="none" stroke="rgb(115, 161, 191)" stroke-width="1" d="M1005.5000524930656,1175.5000637583435C1020.5000524930656,1175.5000637583435,1020.5000524930656,1189.5000637583435,1035.5000524930656,1189.5000637583435L1126.5000524930656,1189.5000637583435"></path><path id="kity_path_177" fill="none" stroke="rgb(115, 161, 191)" stroke-width="1" d="M746.5000524930656,826.5000637583435A176,478,0,0,0,922.5000524930656,1304.5000637583435"></path><path id="kity_path_179" fill="none" stroke="rgb(115, 161, 191)" stroke-width="1" d="M1008.5000524930656,1304.5000637583435C1023.5000524930656,1304.5000637583435,1023.5000524930656,1240.5000637583435,1038.5000524930656,1240.5000637583435L1118.5000524930656,1240.5000637583435"></path><path id="kity_path_181" fill="none" stroke="rgb(115, 161, 191)" stroke-width="1" d="M1008.5000524930656,1304.5000637583435C1023.5000524930656,1304.5000637583435,1023.5000524930656,1292.5000637583435,1038.5000524930656,1292.5000637583435L1106.5000524930656,1292.5000637583435"></path><path id="kity_path_183" fill="none" stroke="rgb(115, 161, 191)" stroke-width="1" d="M1008.5000524930656,1304.5000637583435C1023.5000524930656,1304.5000637583435,1023.5000524930656,1344.5000637583435,1038.5000524930656,1344.5000637583435L1130.5000524930656,1344.5000637583435"></path><path id="kity_path_185" fill="none" stroke="rgb(115, 161, 191)" stroke-width="1" d="M1008.5000524930656,1304.5000637583435C1023.5000524930656,1304.5000637583435,1023.5000524930656,1396.5000637583435,1038.5000524930656,1396.5000637583435L1118.5000524930656,1396.5000637583435"></path></g><g id="minder_node1"><path id="node_outline1" fill="rgb(115, 161, 191)" stroke="rgb(57, 80, 96)" d="M710.5000524930656,806.5000637583435h72a5,5,0,0,1,5,5v30a5,5,0,0,1,-5,5h-72a5,5,0,0,1,-5,-5v-30a5,5,0,0,1,5,-5z" stroke-width="3"></path><g id="node_text1" fill="white"><text id="kity_text_22" text-rendering="inherit" font-size="16" dy=".8em" y="816.1000636331737" x="729.5000524930656">算法</text></g></g><g id="kity_g_12"><path id="kity_path_13" fill="none" stroke="none" d="M729.5000524930656,826.5000637583435h0v0h0z"></path></g><g id="kity_g_14"><path id="kity_path_15" fill="none" stroke="none" d="M729.5000524930656,826.5000637583435h0v0h0z"></path><path id="kity_path_16" fill="none" stroke="none"></path></g><g id="minder_node2"><g id="node_expander12" style="cursor: pointer;"><path id="kity_path_454" fill="white" stroke="gray" d="M451.50003768131137,233.5000328309834A6,6,0,1,1,439.50003768131137,233.5000328309834A6,6,0,1,1,451.50003768131137,233.5000328309834"></path><path id="kity_path_455" fill="none" stroke="gray" d="M441.00003768131137,233.5000328309834L450.00003768131137,233.5000328309834"></path></g><path id="node_outline13" fill="rgb(238, 243, 246)" stroke="rgb(115, 161, 191)" d="M455.5000390894711,220.5000328309834h50a3,3,0,0,1,3,3v20a3,3,0,0,1,-3,3h-50a3,3,0,0,1,-3,-3v-20a3,3,0,0,1,3,-3z" stroke-width="1"></path><g id="node_text13" fill="black"><text id="kity_text_209" text-rendering="inherit" font-size="14" dy=".8em" y="224.40003284861643" x="472.5000390894711">二叉树和图</text></g></g><g id="minder_node3"><g id="node_expander9" style="cursor: pointer;"><path id="kity_path_445" fill="white" stroke="gray" d="M304.50003001466393,161.50002907589078A6,6,0,1,1,292.50003001466393,161.50002907589078A6,6,0,1,1,304.50003001466393,161.50002907589078"></path><path id="kity_path_446" fill="none" stroke="gray" d="M294.00003001466393,161.50002907589078L303.00003001466393,161.50002907589078"></path></g><path id="node_outline10" fill="none" stroke="none" d="M309.50003084912896,150.50002907589078h47a5,5,0,0,1,5,5v12a5,5,0,0,1,-5,5h-47a5,5,0,0,1,-5,-5v-12a5,5,0,0,1,5,-5z"></path><g id="node_text10" fill="black"><text id="kity_text_203" text-rendering="inherit" font-size="12" dy=".8em" y="153.70002898201346" x="314.50003084912896">二叉树</text></g></g><g id="minder_node4"><g id="node_expander3" style="cursor: pointer;"><path id="kity_path_427" fill="white" stroke="gray" d="M150.50002198293805,58.50002370402217A6,6,0,1,1,138.50002198293805,58.50002370402217A6,6,0,1,1,150.50002198293805,58.50002370402217"></path><path id="kity_path_428" fill="none" stroke="gray" d="M140.00002198293805,58.50002370402217L149.00002198293805,58.50002370402217"></path></g><path id="node_outline4" fill="none" stroke="none" d="M155.50002281740308,47.50002370402217h35a5,5,0,0,1,5,5v12a5,5,0,0,1,-5,5h-35a5,5,0,0,1,-5,-5v-12a5,5,0,0,1,5,-5z"></path><g id="node_text4" fill="black"><text id="kity_text_191" text-rendering="inherit" font-size="12" dy=".8em" y="50.700023610144854" x="160.50002281740308">遍历</text></g></g><g id="minder_node5"><g id="node_expander1" display="none" style="cursor: pointer;"><path id="kity_path_421" fill="white" stroke="gray" d="M27.500015567988157,31.500022295862436A6,6,0,1,1,15.500015567988157,31.500022295862436A6,6,0,1,1,27.500015567988157,31.500022295862436"></path><path id="kity_path_422" fill="none" stroke="gray"></path></g><path id="node_outline2" fill="none" stroke="none" d="M32.500016402453184,20.500022295862436h33a5,5,0,0,1,5,5v12a5,5,0,0,1,-5,5h-33a5,5,0,0,1,-5,-5v-12a5,5,0,0,1,5,-5z"></path><g id="node_text2" fill="black"><text id="kity_text_187" text-rendering="inherit" font-size="12" dy=".8em" y="23.70002220198512" x="37.500016402453184">DFS</text></g></g><g id="minder_node6"><g id="node_expander2" display="none" style="cursor: pointer;"><path id="kity_path_424" fill="white" stroke="gray" d="M26.500015515834093,79.50002479925752A6,6,0,1,1,14.500015515834093,79.50002479925752A6,6,0,1,1,26.500015515834093,79.50002479925752"></path><path id="kity_path_425" fill="none" stroke="gray"></path></g><path id="node_outline3" fill="none" stroke="none" d="M31.50001635029912,68.50002479925752h31a5,5,0,0,1,5,5v12a5,5,0,0,1,-5,5h-31a5,5,0,0,1,-5,-5v-12a5,5,0,0,1,5,-5z"></path><g id="node_text3" fill="black"><text id="kity_text_189" text-rendering="inherit" font-size="12" dy=".8em" y="71.7000247053802" x="36.50001635029912">BFS</text></g></g><g id="minder_node7"><g id="node_expander4" display="none" style="cursor: pointer;"><path id="kity_path_430" fill="white" stroke="gray" d="M139.50002140924335,116.50002672895789A6,6,0,1,1,127.50002140924335,116.50002672895789A6,6,0,1,1,139.50002140924335,116.50002672895789"></path><path id="kity_path_431" fill="none" stroke="gray"></path></g><path id="node_outline5" fill="none" stroke="none" d="M144.50002224370837,105.50002672895789h71a5,5,0,0,1,5,5v12a5,5,0,0,1,-5,5h-71a5,5,0,0,1,-5,-5v-12a5,5,0,0,1,5,-5z"></path><g id="node_text5" fill="black"><text id="kity_text_193" text-rendering="inherit" font-size="12" dy=".8em" y="108.70002663508058" x="149.50002224370837">二叉搜索树</text></g></g><g id="minder_node8"><g id="node_expander7" style="cursor: pointer;"><path id="kity_path_439" fill="white" stroke="gray" d="M144.50002167001367,172.50002964958549A6,6,0,1,1,132.50002167001367,172.50002964958549A6,6,0,1,1,144.50002167001367,172.50002964958549"></path><path id="kity_path_440" fill="none" stroke="gray" d="M134.00002167001367,172.50002964958549L143.00002167001367,172.50002964958549"></path></g><path id="node_outline8" fill="none" stroke="none" d="M149.5000225044787,161.50002964958549h71a5,5,0,0,1,5,5v12a5,5,0,0,1,-5,5h-71a5,5,0,0,1,-5,-5v-12a5,5,0,0,1,5,-5z"></path><g id="node_text8" fill="black"><text id="kity_text_199" text-rendering="inherit" font-size="12" dy=".8em" y="164.70002955570817" x="154.5000225044787">平衡二叉树</text></g></g><g id="minder_node9"><g id="node_expander5" display="none" style="cursor: pointer;"><path id="kity_path_433" fill="white" stroke="gray" d="M24.500015411525965,148.50002839788795A6,6,0,1,1,12.500015411525965,148.50002839788795A6,6,0,1,1,24.500015411525965,148.50002839788795"></path><path id="kity_path_434" fill="none" stroke="gray"></path></g><path id="node_outline6" fill="none" stroke="none" d="M29.50001624599099,137.50002839788795h50a5,5,0,0,1,5,5v12a5,5,0,0,1,-5,5h-50a5,5,0,0,1,-5,-5v-12a5,5,0,0,1,5,-5z"></path><g id="node_text6" fill="black"><text id="kity_text_195" text-rendering="inherit" font-size="12" dy=".8em" y="140.70002830401063" x="34.50001624599099">AVL 二叉树和图</text></g></g><g id="minder_node10"><g id="node_expander6" display="none" style="cursor: pointer;"><path id="kity_path_436" fill="white" stroke="gray" d="M21.500015255063772,192.50003069266677A6,6,0,1,1,9.500015255063772,192.50003069266677A6,6,0,1,1,21.500015255063772,192.50003069266677"></path><path id="kity_path_437" fill="none" stroke="gray"></path></g><path id="node_outline7" fill="none" stroke="none" d="M26.5000160895288,181.50003069266677h48a5,5,0,0,1,5,5v12a5,5,0,0,1,-5,5h-48a5,5,0,0,1,-5,-5v-12a5,5,0,0,1,5,-5z"></path><g id="node_text7" fill="black"><text id="kity_text_197" text-rendering="inherit" font-size="12" dy=".8em" y="184.70003059878945" x="31.5000160895288">红黑树</text></g></g><g id="minder_node11"><g id="node_expander8" display="none" style="cursor: pointer;"><path id="kity_path_442" fill="white" stroke="gray" d="M152.50002208724618,223.50003230944276A6,6,0,1,1,140.50002208724618,223.50003230944276A6,6,0,1,1,152.50002208724618,223.50003230944276"></path><path id="kity_path_443" fill="none" stroke="gray"></path></g><path id="node_outline9" fill="none" stroke="none" d="M157.5000229217112,212.50003230944276h35a5,5,0,0,1,5,5v12a5,5,0,0,1,-5,5h-35a5,5,0,0,1,-5,-5v-12a5,5,0,0,1,5,-5z"></path><g id="node_text9" fill="black"><text id="kity_text_201" text-rendering="inherit" font-size="12" dy=".8em" y="215.70003221556544" x="162.5000229217112">剪枝</text></g></g><g id="minder_node12"><g id="node_expander11" style="cursor: pointer;"><path id="kity_path_451" fill="white" stroke="gray" d="M297.5000296495855,258.500034134835A6,6,0,1,1,285.5000296495855,258.500034134835A6,6,0,1,1,297.5000296495855,258.500034134835"></path><path id="kity_path_452" fill="none" stroke="gray" d="M287.0000296495855,258.500034134835L296.0000296495855,258.500034134835"></path></g><path id="node_outline12" fill="none" stroke="none" d="M302.5000304840505,247.500034134835h48a5,5,0,0,1,5,5v12a5,5,0,0,1,-5,5h-48a5,5,0,0,1,-5,-5v-12a5,5,0,0,1,5,-5z"></path><g id="node_text12" fill="black"><text id="kity_text_207" text-rendering="inherit" font-size="12" dy=".8em" y="250.7000340409577" x="307.5000304840505">字典树</text></g></g><g id="minder_node13"><g id="node_expander10" display="none" style="cursor: pointer;"><path id="kity_path_448" fill="white" stroke="gray" d="M144.50002167001367,269.5000347085297A6,6,0,1,1,132.50002167001367,269.5000347085297A6,6,0,1,1,144.50002167001367,269.5000347085297"></path><path id="kity_path_449" fill="none" stroke="gray"></path></g><path id="node_outline11" fill="none" stroke="none" d="M149.5000225044787,258.5000347085297h71a5,5,0,0,1,5,5v12a5,5,0,0,1,-5,5h-71a5,5,0,0,1,-5,-5v-12a5,5,0,0,1,5,-5z"></path><g id="node_text11" fill="black"><text id="kity_text_205" text-rendering="inherit" font-size="12" dy=".8em" y="261.7000346146524" x="154.5000225044787">空间换时间</text></g></g><g id="minder_node14"><g id="node_expander14" style="cursor: pointer;"><path id="kity_path_460" fill="white" stroke="gray" d="M447.5000374726951,366.50003976747394A6,6,0,1,1,435.5000374726951,366.50003976747394A6,6,0,1,1,447.5000374726951,366.50003976747394"></path><path id="kity_path_461" fill="none" stroke="gray" d="M437.0000374726951,366.50003976747394L446.0000374726951,366.50003976747394"></path></g><path id="node_outline15" fill="rgb(238, 243, 246)" stroke="rgb(115, 161, 191)" d="M451.50003888085485,353.50003976747394h48a3,3,0,0,1,3,3v20a3,3,0,0,1,-3,3h-48a3,3,0,0,1,-3,-3v-20a3,3,0,0,1,3,-3z" stroke-width="1"></path><g id="node_text15" fill="black"><text id="kity_text_213" text-rendering="inherit" font-size="14" dy=".8em" y="357.40003978510697" x="468.50003888085485">图</text></g></g><g id="minder_node15"><g id="node_expander13" display="none" style="cursor: pointer;"><path id="kity_path_457" fill="white" stroke="gray" d="M331.50003142282367,352.50003903731704A6,6,0,1,1,319.50003142282367,352.50003903731704A6,6,0,1,1,331.50003142282367,352.50003903731704"></path><path id="kity_path_458" fill="none" stroke="gray"></path></g><path id="node_outline14" fill="none" stroke="none" d="M123.50002114847302,341.50003903731704h191a5,5,0,0,1,5,5v12a5,5,0,0,1,-5,5h-191a5,5,0,0,1,-5,-5v-12a5,5,0,0,1,5,-5z"></path><g id="node_text14" fill="black"><text id="kity_text_211" text-rendering="inherit" font-size="12" dy=".8em" y="344.7000389434397" x="128.50002114847302">遍历时需要记录已经访问过的结点</text></g></g><g id="minder_node16"><g id="node_expander20" style="cursor: pointer;"><path id="kity_path_478" fill="white" stroke="gray" d="M426.50003637745976,529.5000482685864A6,6,0,1,1,414.50003637745976,529.5000482685864A6,6,0,1,1,426.50003637745976,529.5000482685864"></path><path id="kity_path_479" fill="none" stroke="gray" d="M416.00003637745976,529.5000482685864L425.00003637745976,529.5000482685864"></path></g><path id="node_outline21" fill="rgb(238, 243, 246)" stroke="rgb(115, 161, 191)" d="M430.5000377856195,516.5000482685864h106a3,3,0,0,1,3,3v20a3,3,0,0,1,-3,3h-106a3,3,0,0,1,-3,-3v-20a3,3,0,0,1,3,-3z" stroke-width="1"></path><g id="node_text21" fill="black"><text id="kity_text_225" text-rendering="inherit" font-size="14" dy=".8em" y="520.4000482862194" x="447.5000377856195">递归、分治</text></g></g><g id="minder_node17"><g id="node_expander15" display="none" style="cursor: pointer;"><path id="kity_path_463" fill="white" stroke="gray" d="M399.50003496930003,425.5000428445637A6,6,0,1,1,387.50003496930003,425.5000428445637A6,6,0,1,1,399.50003496930003,425.5000428445637"></path><path id="kity_path_464" fill="none" stroke="gray"></path></g><path id="node_outline16" fill="none" stroke="none" d="M323.50003157928586,414.5000428445637h59a5,5,0,0,1,5,5v12a5,5,0,0,1,-5,5h-59a5,5,0,0,1,-5,-5v-12a5,5,0,0,1,5,-5z"></path><g id="node_text16" fill="black"><text id="kity_text_215" text-rendering="inherit" font-size="12" dy=".8em" y="417.7000427506864" x="328.50003157928586">盗梦空间</text></g></g><g id="minder_node18"><g id="node_expander16" display="none" style="cursor: pointer;"><path id="kity_path_466" fill="white" stroke="gray" d="M399.50003496930003,477.50004555657506A6,6,0,1,1,387.50003496930003,477.50004555657506A6,6,0,1,1,399.50003496930003,477.50004555657506"></path><path id="kity_path_467" fill="none" stroke="gray"></path></g><path id="node_outline17" fill="none" stroke="none" d="M322.5000315271318,466.50004555657506h60a5,5,0,0,1,5,5v12a5,5,0,0,1,-5,5h-60a5,5,0,0,1,-5,-5v-12a5,5,0,0,1,5,-5z"></path><g id="node_text17" fill="black"><text id="kity_text_217" text-rendering="inherit" font-size="12" dy=".8em" y="469.70004546269774" x="327.5000315271318">终止状态</text></g></g><g id="minder_node19"><g id="node_expander17" display="none" style="cursor: pointer;"><path id="kity_path_469" fill="white" stroke="gray" d="M399.50003496930003,529.5000482685864A6,6,0,1,1,387.50003496930003,529.5000482685864A6,6,0,1,1,399.50003496930003,529.5000482685864"></path><path id="kity_path_470" fill="none" stroke="gray"></path></g><path id="node_outline18" fill="none" stroke="none" d="M322.5000315271318,518.5000482685864h60a5,5,0,0,1,5,5v12a5,5,0,0,1,-5,5h-60a5,5,0,0,1,-5,-5v-12a5,5,0,0,1,5,-5z"></path><g id="node_text18" fill="black"><text id="kity_text_219" text-rendering="inherit" font-size="12" dy=".8em" y="521.7000481747091" x="327.5000315271318">本层处理</text></g></g><g id="minder_node20"><g id="node_expander18" display="none" style="cursor: pointer;"><path id="kity_path_472" fill="white" stroke="gray" d="M399.50003496930003,581.5000509805977A6,6,0,1,1,387.50003496930003,581.5000509805977A6,6,0,1,1,399.50003496930003,581.5000509805977"></path><path id="kity_path_473" fill="none" stroke="gray"></path></g><path id="node_outline19" fill="none" stroke="none" d="M308.5000307969749,570.5000509805977h74a5,5,0,0,1,5,5v12a5,5,0,0,1,-5,5h-74a5,5,0,0,1,-5,-5v-12a5,5,0,0,1,5,-5z"></path><g id="node_text19" fill="black"><text id="kity_text_221" text-rendering="inherit" font-size="12" dy=".8em" y="573.7000508867204" x="313.5000307969749">Drill Down&#xa0;</text></g></g><g id="minder_node21"><g id="node_expander19" display="none" style="cursor: pointer;"><path id="kity_path_475" fill="white" stroke="gray" d="M399.50003496930003,633.5000536926091A6,6,0,1,1,387.50003496930003,633.5000536926091A6,6,0,1,1,399.50003496930003,633.5000536926091"></path><path id="kity_path_476" fill="none" stroke="gray"></path></g><path id="node_outline20" fill="none" stroke="none" d="M298.50003027543426,622.5000536926091h84a5,5,0,0,1,5,5v12a5,5,0,0,1,-5,5h-84a5,5,0,0,1,-5,-5v-12a5,5,0,0,1,5,-5z"></path><g id="node_text20" fill="black"><text id="kity_text_223" text-rendering="inherit" font-size="12" dy=".8em" y="625.7000535987318" x="303.50003027543426">本层状态清理 </text></g></g><g id="minder_node22"><g id="node_expander24" style="cursor: pointer;"><path id="kity_path_490" fill="white" stroke="gray" d="M430.500036586076,734.5000589601696A6,6,0,1,1,418.500036586076,734.5000589601696A6,6,0,1,1,430.500036586076,734.5000589601696"></path><path id="kity_path_491" fill="none" stroke="gray" d="M420.000036586076,734.5000589601696L429.000036586076,734.5000589601696"></path></g><path id="node_outline25" fill="rgb(238, 243, 246)" stroke="rgb(115, 161, 191)" d="M434.50003799423575,721.5000589601696h91a3,3,0,0,1,3,3v20a3,3,0,0,1,-3,3h-91a3,3,0,0,1,-3,-3v-20a3,3,0,0,1,3,-3z" stroke-width="1"></path><g id="node_text25" fill="black"><text id="kity_text_233" text-rendering="inherit" font-size="14" dy=".8em" y="725.4000589778026" x="451.50003799423575">二分查找</text></g></g><g id="minder_node23"><g id="node_expander21" display="none" style="cursor: pointer;"><path id="kity_path_481" fill="white" stroke="gray" d="M403.5000351779163,682.5000562481582A6,6,0,1,1,391.5000351779163,682.5000562481582A6,6,0,1,1,403.5000351779163,682.5000562481582"></path><path id="kity_path_482" fill="none" stroke="gray"></path></g><path id="node_outline22" fill="none" stroke="none" d="M350.5000329874456,671.5000562481582h36a5,5,0,0,1,5,5v12a5,5,0,0,1,-5,5h-36a5,5,0,0,1,-5,-5v-12a5,5,0,0,1,5,-5z"></path><g id="node_text22" fill="black"><text id="kity_text_227" text-rendering="inherit" font-size="12" dy=".8em" y="674.7000561542809" x="355.5000329874456">有序</text></g></g><g id="minder_node24"><g id="node_expander22" display="none" style="cursor: pointer;"><path id="kity_path_484" fill="white" stroke="gray" d="M403.5000351779163,734.5000589601696A6,6,0,1,1,391.5000351779163,734.5000589601696A6,6,0,1,1,403.5000351779163,734.5000589601696"></path><path id="kity_path_485" fill="none" stroke="gray"></path></g><path id="node_outline23" fill="none" stroke="none" d="M350.5000329874456,723.5000589601696h36a5,5,0,0,1,5,5v12a5,5,0,0,1,-5,5h-36a5,5,0,0,1,-5,-5v-12a5,5,0,0,1,5,-5z"></path><g id="node_text23" fill="black"><text id="kity_text_229" text-rendering="inherit" font-size="12" dy=".8em" y="726.7000588662922" x="355.5000329874456">有界</text></g></g><g id="minder_node25"><g id="node_expander23" display="none" style="cursor: pointer;"><path id="kity_path_487" fill="white" stroke="gray" d="M403.5000351779163,786.5000616721809A6,6,0,1,1,391.5000351779163,786.5000616721809A6,6,0,1,1,403.5000351779163,786.5000616721809"></path><path id="kity_path_488" fill="none" stroke="gray"></path></g><path id="node_outline24" fill="none" stroke="none" d="M255.5000280328095,775.5000616721809h131a5,5,0,0,1,5,5v12a5,5,0,0,1,-5,5h-131a5,5,0,0,1,-5,-5v-12a5,5,0,0,1,5,-5z"></path><g id="node_text24" fill="black"><text id="kity_text_231" text-rendering="inherit" font-size="12" dy=".8em" y="778.7000615783036" x="260.5000280328095">能够通过索引随机访问</text></g></g><g id="minder_node26"><g id="node_expander27" style="cursor: pointer;"><path id="kity_path_499" fill="white" stroke="gray" d="M427.50003642961383,887.5000669397414A6,6,0,1,1,415.50003642961383,887.5000669397414A6,6,0,1,1,427.50003642961383,887.5000669397414"></path><path id="kity_path_500" fill="none" stroke="gray" d="M417.00003642961383,887.5000669397414L426.00003642961383,887.5000669397414"></path></g><path id="node_outline28" fill="rgb(238, 243, 246)" stroke="rgb(115, 161, 191)" d="M431.50003783777356,874.5000669397414h92a3,3,0,0,1,3,3v20a3,3,0,0,1,-3,3h-92a3,3,0,0,1,-3,-3v-20a3,3,0,0,1,3,-3z" stroke-width="1"></path><g id="node_text28" fill="black"><text id="kity_text_239" text-rendering="inherit" font-size="14" dy=".8em" y="878.4000669573744" x="448.50003783777356">贪心算法</text></g></g><g id="minder_node27"><g id="node_expander25" display="none" style="cursor: pointer;"><path id="kity_path_493" fill="white" stroke="gray" d="M412.50003564730287,845.5000647492707A6,6,0,1,1,400.50003564730287,845.5000647492707A6,6,0,1,1,412.50003564730287,845.5000647492707"></path><path id="kity_path_494" fill="none" stroke="gray"></path></g><path id="node_outline26" fill="none" stroke="none" d="M300.5000303797424,834.5000647492707h95a5,5,0,0,1,5,5v12a5,5,0,0,1,-5,5h-95a5,5,0,0,1,-5,-5v-12a5,5,0,0,1,5,-5z"></path><g id="node_text26" fill="black"><text id="kity_text_235" text-rendering="inherit" font-size="12" dy=".8em" y="837.7000646553934" x="305.5000303797424">判断能不能贪心</text></g></g><g id="minder_node28"><g id="node_expander26" display="none" style="cursor: pointer;"><path id="kity_path_496" fill="white" stroke="gray" d="M409.5000354908407,899.5000675655901A6,6,0,1,1,397.5000354908407,899.5000675655901A6,6,0,1,1,409.5000354908407,899.5000675655901"></path><path id="kity_path_497" fill="none" stroke="gray"></path></g><path id="node_outline27" fill="none" stroke="none" d="M285.5000295974314,888.5000675655901h107a5,5,0,0,1,5,5v12a5,5,0,0,1,-5,5h-107a5,5,0,0,1,-5,-5v-12a5,5,0,0,1,5,-5z"></path><g id="node_text27" fill="black"><text id="kity_text_237" text-rendering="inherit" font-size="12" dy=".8em" y="891.7000674717128" x="290.5000295974314">弱化版的动态规划</text></g></g><g id="minder_node29"><g id="node_expander34" style="cursor: pointer;"><path id="kity_path_520" fill="white" stroke="gray" d="M435.50003684684634,1057.5000758059323A6,6,0,1,1,423.50003684684634,1057.5000758059323A6,6,0,1,1,435.50003684684634,1057.5000758059323"></path><path id="kity_path_521" fill="none" stroke="gray" d="M425.00003684684634,1057.5000758059323L434.00003684684634,1057.5000758059323"></path></g><path id="node_outline35" fill="rgb(238, 243, 246)" stroke="rgb(115, 161, 191)" d="M439.5000382550061,1044.5000758059323h90a3,3,0,0,1,3,3v20a3,3,0,0,1,-3,3h-90a3,3,0,0,1,-3,-3v-20a3,3,0,0,1,3,-3z" stroke-width="1"></path><g id="node_text35" fill="black"><text id="kity_text_253" text-rendering="inherit" font-size="14" dy=".8em" y="1048.4000758235654" x="456.5000382550061">动态规划</text></g></g><g id="minder_node30"><g id="node_expander28" display="none" style="cursor: pointer;"><path id="kity_path_502" fill="white" stroke="gray" d="M408.5000354386866,953.5000703819096A6,6,0,1,1,396.5000354386866,953.5000703819096A6,6,0,1,1,408.5000354386866,953.5000703819096"></path><path id="kity_path_503" fill="none" stroke="gray"></path></g><path id="node_outline29" fill="none" stroke="none" d="M259.50002824142575,942.5000703819096h132a5,5,0,0,1,5,5v12a5,5,0,0,1,-5,5h-132a5,5,0,0,1,-5,-5v-12a5,5,0,0,1,5,-5z"></path><g id="node_text29" fill="black"><text id="kity_text_241" text-rendering="inherit" font-size="12" dy=".8em" y="945.7000702880323" x="264.50002824142575">简单版本是递归加缓存</text></g></g><g id="minder_node31"><g id="node_expander29" display="none" style="cursor: pointer;"><path id="kity_path_505" fill="white" stroke="gray" d="M408.5000354386866,1005.500073093921A6,6,0,1,1,396.5000354386866,1005.500073093921A6,6,0,1,1,408.5000354386866,1005.500073093921"></path><path id="kity_path_506" fill="none" stroke="gray"></path></g><path id="node_outline30" fill="none" stroke="none" d="M268.50002871081233,994.500073093921h123a5,5,0,0,1,5,5v12a5,5,0,0,1,-5,5h-123a5,5,0,0,1,-5,-5v-12a5,5,0,0,1,5,-5z"></path><g id="node_text30" fill="black"><text id="kity_text_243" text-rendering="inherit" font-size="12" dy=".8em" y="997.7000730000436" x="273.50002871081233">高级版本是递推公式&#xa0;</text></g></g><g id="minder_node32"><g id="node_expander31" style="cursor: pointer;"><path id="kity_path_511" fill="white" stroke="gray" d="M408.5000354386866,1057.5000758059323A6,6,0,1,1,396.5000354386866,1057.5000758059323A6,6,0,1,1,408.5000354386866,1057.5000758059323"></path><path id="kity_path_512" fill="none" stroke="gray" d="M398.0000354386866,1057.5000758059323L407.0000354386866,1057.5000758059323"></path></g><path id="node_outline32" fill="none" stroke="none" d="M319.5000313706696,1046.5000758059323h72a5,5,0,0,1,5,5v12a5,5,0,0,1,-5,5h-72a5,5,0,0,1,-5,-5v-12a5,5,0,0,1,5,-5z"></path><g id="node_text32" fill="black"><text id="kity_text_247" text-rendering="inherit" font-size="12" dy=".8em" y="1049.700075712055" x="324.5000313706696">状态的定义</text></g></g><g id="minder_node33"><g id="node_expander30" display="none" style="cursor: pointer;"><path id="kity_path_508" fill="white" stroke="gray" d="M286.5000290758908,1057.5000758059323A6,6,0,1,1,274.5000290758908,1057.5000758059323A6,6,0,1,1,286.5000290758908,1057.5000758059323"></path><path id="kity_path_509" fill="none" stroke="gray"></path></g><path id="node_outline31" fill="none" stroke="none" d="M137.50002187862992,1046.5000758059323h132a5,5,0,0,1,5,5v12a5,5,0,0,1,-5,5h-132a5,5,0,0,1,-5,-5v-12a5,5,0,0,1,5,-5z"></path><g id="node_text31" fill="black"><text id="kity_text_245" text-rendering="inherit" font-size="12" dy=".8em" y="1049.700075712055" x="142.50002187862992">有些场景需要套用模板</text></g></g><g id="minder_node34"><g id="node_expander32" display="none" style="cursor: pointer;"><path id="kity_path_514" fill="white" stroke="gray" d="M408.5000354386866,1109.5000785179436A6,6,0,1,1,396.5000354386866,1109.5000785179436A6,6,0,1,1,408.5000354386866,1109.5000785179436"></path><path id="kity_path_515" fill="none" stroke="gray"></path></g><path id="node_outline33" fill="none" stroke="none" d="M320.50003142282367,1098.5000785179436h71a5,5,0,0,1,5,5v12a5,5,0,0,1,-5,5h-71a5,5,0,0,1,-5,-5v-12a5,5,0,0,1,5,-5z"></path><g id="node_text33" fill="black"><text id="kity_text_249" text-rendering="inherit" font-size="12" dy=".8em" y="1101.7000784240663" x="325.50003142282367">最优子结构</text></g></g><g id="minder_node35"><g id="node_expander33" display="none" style="cursor: pointer;"><path id="kity_path_517" fill="white" stroke="gray" d="M408.5000354386866,1161.500081229955A6,6,0,1,1,396.5000354386866,1161.500081229955A6,6,0,1,1,408.5000354386866,1161.500081229955"></path><path id="kity_path_518" fill="none" stroke="gray"></path></g><path id="node_outline34" fill="none" stroke="none" d="M307.50003074482083,1150.500081229955h84a5,5,0,0,1,5,5v12a5,5,0,0,1,-5,5h-84a5,5,0,0,1,-5,-5v-12a5,5,0,0,1,5,-5z"></path><g id="node_text34" fill="black"><text id="kity_text_251" text-rendering="inherit" font-size="12" dy=".8em" y="1153.7000811360776" x="312.50003074482083">状态转移方程</text></g></g><g id="minder_node36"><g id="node_expander36" style="cursor: pointer;"><path id="kity_path_526" fill="white" stroke="gray" d="M435.50003684684634,1254.500086080283A6,6,0,1,1,423.50003684684634,1254.500086080283A6,6,0,1,1,435.50003684684634,1254.500086080283"></path><path id="kity_path_527" fill="none" stroke="gray" d="M425.00003684684634,1254.500086080283L434.00003684684634,1254.500086080283"></path></g><path id="node_outline37" fill="rgb(238, 243, 246)" stroke="rgb(115, 161, 191)" d="M439.5000382550061,1241.500086080283h78a3,3,0,0,1,3,3v20a3,3,0,0,1,-3,3h-78a3,3,0,0,1,-3,-3v-20a3,3,0,0,1,3,-3z" stroke-width="1"></path><g id="node_text37" fill="black"><text id="kity_text_257" text-rendering="inherit" font-size="14" dy=".8em" y="1245.400086097916" x="456.5000382550061">位运算</text></g></g><g id="minder_node37"><g id="node_expander35" display="none" style="cursor: pointer;"><path id="kity_path_523" fill="white" stroke="gray" d="M393.50003465637565,1243.5000855065882A6,6,0,1,1,381.50003465637565,1243.5000855065882A6,6,0,1,1,393.50003465637565,1243.5000855065882"></path><path id="kity_path_524" fill="none" stroke="gray"></path></g><path id="node_outline36" fill="none" stroke="none" d="M196.5000249557197,1232.5000855065882h180a5,5,0,0,1,5,5v12a5,5,0,0,1,-5,5h-180a5,5,0,0,1,-5,-5v-12a5,5,0,0,1,5,-5z"></path><g id="node_text36" fill="black"><text id="kity_text_255" text-rendering="inherit" font-size="12" dy=".8em" y="1235.700085412711" x="201.5000249557197">需要记忆一些常见的位运算公式</text></g></g><g id="minder_node38"><g id="node_expander40" style="cursor: pointer;"><path id="kity_path_538" fill="white" stroke="gray" d="M422.5000361688435,1367.5000919736922A6,6,0,1,1,410.5000361688435,1367.5000919736922A6,6,0,1,1,422.5000361688435,1367.5000919736922"></path><path id="kity_path_539" fill="none" stroke="gray" d="M412.0000361688435,1367.5000919736922L421.0000361688435,1367.5000919736922"></path></g><path id="node_outline41" fill="rgb(238, 243, 246)" stroke="rgb(115, 161, 191)" d="M426.50003757700324,1354.5000919736922h106a3,3,0,0,1,3,3v20a3,3,0,0,1,-3,3h-106a3,3,0,0,1,-3,-3v-20a3,3,0,0,1,3,-3z" stroke-width="1"></path><g id="node_text41" fill="black"><text id="kity_text_265" text-rendering="inherit" font-size="14" dy=".8em" y="1358.4000919913253" x="443.50003757700324">布隆过滤器</text></g></g><g id="minder_node39"><g id="node_expander37" display="none" style="cursor: pointer;"><path id="kity_path_529" fill="white" stroke="gray" d="M395.5000347606838,1315.5000892616808A6,6,0,1,1,383.5000347606838,1315.5000892616808A6,6,0,1,1,395.5000347606838,1315.5000892616808"></path><path id="kity_path_530" fill="none" stroke="gray"></path></g><path id="node_outline38" fill="none" stroke="none" d="M245.50002751126885,1304.5000892616808h133a5,5,0,0,1,5,5v12a5,5,0,0,1,-5,5h-133a5,5,0,0,1,-5,-5v-12a5,5,0,0,1,5,-5z"></path><g id="node_text38" fill="black"><text id="kity_text_259" text-rendering="inherit" font-size="12" dy=".8em" y="1307.7000891678035" x="250.50002751126885">判断不存在 100% 准确</text></g></g><g id="minder_node40"><g id="node_expander38" display="none" style="cursor: pointer;"><path id="kity_path_532" fill="white" stroke="gray" d="M395.5000347606838,1367.5000919736922A6,6,0,1,1,383.5000347606838,1367.5000919736922A6,6,0,1,1,395.5000347606838,1367.5000919736922"></path><path id="kity_path_533" fill="none" stroke="gray"></path></g><path id="node_outline39" fill="none" stroke="none" d="M283.5000294931233,1356.5000919736922h95a5,5,0,0,1,5,5v12a5,5,0,0,1,-5,5h-95a5,5,0,0,1,-5,-5v-12a5,5,0,0,1,5,-5z"></path><g id="node_text39" fill="black"><text id="kity_text_261" text-rendering="inherit" font-size="12" dy=".8em" y="1359.7000918798149" x="288.5000294931233">判断存在有误差</text></g></g><g id="minder_node41"><g id="node_expander39" display="none" style="cursor: pointer;"><path id="kity_path_535" fill="white" stroke="gray" d="M395.5000347606838,1419.5000946857035A6,6,0,1,1,383.5000347606838,1419.5000946857035A6,6,0,1,1,395.5000347606838,1419.5000946857035"></path><path id="kity_path_536" fill="none" stroke="gray"></path></g><path id="node_outline40" fill="none" stroke="none" d="M122.50002109631896,1408.5000946857035h256a5,5,0,0,1,5,5v12a5,5,0,0,1,-5,5h-256a5,5,0,0,1,-5,-5v-12a5,5,0,0,1,5,-5z"></path><g id="node_text40" fill="black"><text id="kity_text_263" text-rendering="inherit" font-size="12" dy=".8em" y="1411.7000945918262" x="127.50002109631896">利用 Hash 函数将待判断 Key 对应到多个位上 </text></g></g><g id="minder_node42"><g id="node_expander43" style="cursor: pointer;"><path id="kity_path_547" fill="white" stroke="gray" d="M454.50003783777356,1519.50009990111A6,6,0,1,1,442.50003783777356,1519.50009990111A6,6,0,1,1,454.50003783777356,1519.50009990111"></path><path id="kity_path_548" fill="none" stroke="gray" d="M444.00003783777356,1519.50009990111L453.00003783777356,1519.50009990111"></path></g><path id="node_outline44" fill="rgb(238, 243, 246)" stroke="rgb(115, 161, 191)" d="M458.5000392459333,1506.50009990111h61a3,3,0,0,1,3,3v20a3,3,0,0,1,-3,3h-61a3,3,0,0,1,-3,-3v-20a3,3,0,0,1,3,-3z" stroke-width="1"></path><g id="node_text44" fill="black"><text id="kity_text_271" text-rendering="inherit" font-size="14" dy=".8em" y="1510.400099918743" x="475.5000392459333">LRU</text></g></g><g id="minder_node43"><g id="node_expander41" display="none" style="cursor: pointer;"><path id="kity_path_541" fill="white" stroke="gray" d="M427.50003642961383,1493.5000985451043A6,6,0,1,1,415.50003642961383,1493.5000985451043A6,6,0,1,1,427.50003642961383,1493.5000985451043"></path><path id="kity_path_542" fill="none" stroke="gray"></path></g><path id="node_outline42" fill="none" stroke="none" d="M275.5000290758908,1482.5000985451043h135a5,5,0,0,1,5,5v12a5,5,0,0,1,-5,5h-135a5,5,0,0,1,-5,-5v-12a5,5,0,0,1,5,-5z"></path><g id="node_text42" fill="black"><text id="kity_text_267" text-rendering="inherit" font-size="12" dy=".8em" y="1485.700098451227" x="280.5000290758908">HashTable + 双向链表</text></g></g><g id="minder_node44"><g id="node_expander42" display="none" style="cursor: pointer;"><path id="kity_path_544" fill="white" stroke="gray" d="M427.50003642961383,1545.5001012571156A6,6,0,1,1,415.50003642961383,1545.5001012571156A6,6,0,1,1,427.50003642961383,1545.5001012571156"></path><path id="kity_path_545" fill="none" stroke="gray"></path></g><path id="node_outline43" fill="none" stroke="none" d="M237.50002709403634,1534.5001012571156h173a5,5,0,0,1,5,5v12a5,5,0,0,1,-5,5h-173a5,5,0,0,1,-5,-5v-12a5,5,0,0,1,5,-5z"></path><g id="node_text43" fill="black"><text id="kity_text_269" text-rendering="inherit" font-size="12" dy=".8em" y="1537.7001011632383" x="242.50002709403634">get 和 set 都是 O(1) 的复杂度</text></g></g><g id="minder_node45"><g id="node_expander49" style="cursor: pointer;"><path id="kity_path_565" fill="white" stroke="gray" d="M1002.5000664182007,201.50003116205335A6,6,0,1,1,990.5000664182007,201.50003116205335A6,6,0,1,1,1002.5000664182007,201.50003116205335"></path><path id="kity_path_566" fill="none" stroke="gray" d="M992.0000664182007,201.50003116205335L1001.0000664182007,201.50003116205335"></path></g><path id="node_outline50" fill="rgb(238, 243, 246)" stroke="rgb(115, 161, 191)" d="M923.5000634975731,188.50003116205335h63a3,3,0,0,1,3,3v20a3,3,0,0,1,-3,3h-63a3,3,0,0,1,-3,-3v-20a3,3,0,0,1,3,-3z" stroke-width="1"></path><g id="node_text50" fill="black"><text id="kity_text_283" text-rendering="inherit" font-size="14" dy=".8em" y="192.40003117968638" x="940.5000634975731">工具</text></g></g><g id="minder_node46"><g id="node_expander44" display="none" style="cursor: pointer;"><path id="kity_path_550" fill="white" stroke="gray" d="M1029.5000678263605,97.50002573803067A6,6,0,1,1,1017.5000678263605,97.50002573803067A6,6,0,1,1,1029.5000678263605,97.50002573803067"></path><path id="kity_path_551" fill="none" stroke="gray"></path></g><path id="node_outline45" fill="none" stroke="none" d="M1034.5000686608255,86.50002573803067h104a5,5,0,0,1,5,5v12a5,5,0,0,1,-5,5h-104a5,5,0,0,1,-5,-5v-12a5,5,0,0,1,5,-5z"></path><g id="node_text45" fill="black"><text id="kity_text_273" text-rendering="inherit" font-size="12" dy=".8em" y="89.70002564415336" x="1039.5000686608255">Google 搜索引擎</text></g></g><g id="minder_node47"><g id="node_expander45" display="none" style="cursor: pointer;"><path id="kity_path_553" fill="white" stroke="gray" d="M1029.5000678263605,149.500028450042A6,6,0,1,1,1017.5000678263605,149.500028450042A6,6,0,1,1,1029.5000678263605,149.500028450042"></path><path id="kity_path_554" fill="none" stroke="gray"></path></g><path id="node_outline46" fill="none" stroke="none" d="M1034.5000686608255,138.500028450042h161a5,5,0,0,1,5,5v12a5,5,0,0,1,-5,5h-161a5,5,0,0,1,-5,-5v-12a5,5,0,0,1,5,-5z"></path><g id="node_text46" fill="black"><text id="kity_text_275" text-rendering="inherit" font-size="12" dy=".8em" y="141.7000283561647" x="1039.5000686608255">iTerm2 + zsh 最强终端体验</text></g></g><g id="minder_node48"><g id="node_expander46" display="none" style="cursor: pointer;"><path id="kity_path_556" fill="white" stroke="gray" d="M1029.5000678263605,201.50003116205335A6,6,0,1,1,1017.5000678263605,201.50003116205335A6,6,0,1,1,1029.5000678263605,201.50003116205335"></path><path id="kity_path_557" fill="none" stroke="gray"></path></g><path id="node_outline47" fill="none" stroke="none" d="M1034.5000686608255,190.50003116205335h89a5,5,0,0,1,5,5v12a5,5,0,0,1,-5,5h-89a5,5,0,0,1,-5,-5v-12a5,5,0,0,1,5,-5z"></path><g id="node_text47" fill="black"><text id="kity_text_277" text-rendering="inherit" font-size="12" dy=".8em" y="193.70003106817603" x="1039.5000686608255">heyfocus.com</text></g></g><g id="minder_node49"><g id="node_expander47" display="none" style="cursor: pointer;"><path id="kity_path_559" fill="white" stroke="gray" d="M1029.5000678263605,253.50003387406468A6,6,0,1,1,1017.5000678263605,253.50003387406468A6,6,0,1,1,1029.5000678263605,253.50003387406468"></path><path id="kity_path_560" fill="none" stroke="gray"></path></g><path id="node_outline48" fill="none" stroke="none" d="M1034.5000686608255,242.50003387406468h148a5,5,0,0,1,5,5v12a5,5,0,0,1,-5,5h-148a5,5,0,0,1,-5,-5v-12a5,5,0,0,1,5,-5z"></path><g id="node_text48" fill="black"><text id="kity_text_279" text-rendering="inherit" font-size="12" dy=".8em" y="245.70003378018737" x="1039.5000686608255">IDEA + LeetCode Plugin</text></g></g><g id="minder_node50"><g id="node_expander48" display="none" style="cursor: pointer;"><path id="kity_path_562" fill="white" stroke="gray" d="M1029.5000678263605,305.500036586076A6,6,0,1,1,1017.5000678263605,305.500036586076A6,6,0,1,1,1029.5000678263605,305.500036586076"></path><path id="kity_path_563" fill="none" stroke="gray"></path></g><path id="node_outline49" fill="none" stroke="none" d="M1034.5000686608255,294.500036586076h65a5,5,0,0,1,5,5v12a5,5,0,0,1,-5,5h-65a5,5,0,0,1,-5,-5v-12a5,5,0,0,1,5,-5z"></path><g id="node_text49" fill="black"><text id="kity_text_281" text-rendering="inherit" font-size="12" dy=".8em" y="297.7000364921987" x="1039.5000686608255">LeetCode</text></g></g><g id="minder_node51"><g id="node_expander59" style="cursor: pointer;"><path id="kity_path_595" fill="white" stroke="gray" d="M1024.5000675655901,578.5000508241355A6,6,0,1,1,1012.5000675655901,578.5000508241355A6,6,0,1,1,1024.5000675655901,578.5000508241355"></path><path id="kity_path_596" fill="none" stroke="gray" d="M1014.0000675655901,578.5000508241355L1023.0000675655901,578.5000508241355"></path></g><path id="node_outline60" fill="rgb(238, 243, 246)" stroke="rgb(115, 161, 191)" d="M930.5000638626516,565.5000508241355h78a3,3,0,0,1,3,3v20a3,3,0,0,1,-3,3h-78a3,3,0,0,1,-3,-3v-20a3,3,0,0,1,3,-3z" stroke-width="1"></path><g id="node_text60" fill="black"><text id="kity_text_303" text-rendering="inherit" font-size="14" dy=".8em" y="569.4000508417686" x="947.5000638626516">复杂度</text></g></g><g id="minder_node52"><g id="node_expander55" style="cursor: pointer;"><path id="kity_path_583" fill="white" stroke="gray" d="M1160.5000746585429,482.5000458173454A6,6,0,1,1,1148.5000746585429,482.5000458173454A6,6,0,1,1,1160.5000746585429,482.5000458173454"></path><path id="kity_path_584" fill="none" stroke="gray" d="M1150.0000746585429,482.5000458173454L1159.0000746585429,482.5000458173454"></path></g><path id="node_outline56" fill="none" stroke="none" d="M1072.50007064268,471.5000458173454h71a5,5,0,0,1,5,5v12a5,5,0,0,1,-5,5h-71a5,5,0,0,1,-5,-5v-12a5,5,0,0,1,5,-5z"></path><g id="node_text56" fill="black"><text id="kity_text_295" text-rendering="inherit" font-size="12" dy=".8em" y="474.70004572346807" x="1077.50007064268">时间复杂度</text></g></g><g id="minder_node53"><g id="node_expander50" display="none" style="cursor: pointer;"><path id="kity_path_568" fill="white" stroke="gray" d="M1505.500092651695,301.50003637745976A6,6,0,1,1,1493.500092651695,301.50003637745976A6,6,0,1,1,1505.500092651695,301.50003637745976"></path><path id="kity_path_569" fill="none" stroke="gray"></path></g><path id="node_outline51" fill="none" stroke="none" d="M1221.5000784136355,290.50003637745976h267a5,5,0,0,1,5,5v12a5,5,0,0,1,-5,5h-267a5,5,0,0,1,-5,-5v-12a5,5,0,0,1,5,-5z"></path><g id="node_text51" fill="black"><text id="kity_text_285" text-rendering="inherit" font-size="12" dy=".8em" y="293.70003628358245" x="1226.5000784136355">O(1) 常数复杂度，最佳，比如 Hash 表、缓存等</text></g></g><g id="minder_node54"><g id="node_expander51" display="none" style="cursor: pointer;"><path id="kity_path_571" fill="white" stroke="gray" d="M1566.500095833093,348.5000388287008A6,6,0,1,1,1554.500095833093,348.5000388287008A6,6,0,1,1,1566.500095833093,348.5000388287008"></path><path id="kity_path_572" fill="none" stroke="gray"></path></g><path id="node_outline52" fill="none" stroke="none" d="M1235.5000791437924,337.5000388287008h314a5,5,0,0,1,5,5v12a5,5,0,0,1,-5,5h-314a5,5,0,0,1,-5,-5v-12a5,5,0,0,1,5,-5z"></path><g id="node_text52" fill="black"><text id="kity_text_287" text-rendering="inherit" font-size="12" dy=".8em" y="340.70003873482347" x="1240.5000791437924">O(log n) 仅次于常数复杂度，如二分查找、二叉搜索树等</text></g></g><g id="minder_node55"><g id="node_expander52" display="none" style="cursor: pointer;"><path id="kity_path_574" fill="white" stroke="gray" d="M1456.5000900961459,396.50004133209586A6,6,0,1,1,1444.5000900961459,396.50004133209586A6,6,0,1,1,1456.5000900961459,396.50004133209586"></path><path id="kity_path_575" fill="none" stroke="gray"></path></g><path id="node_outline53" fill="none" stroke="none" d="M1231.5000789351761,385.50004133209586h208a5,5,0,0,1,5,5v12a5,5,0,0,1,-5,5h-208a5,5,0,0,1,-5,-5v-12a5,5,0,0,1,5,-5z"></path><g id="node_text53" fill="black"><text id="kity_text_289" text-rendering="inherit" font-size="12" dy=".8em" y="388.70004123821855" x="1236.5000789351761">O(n) 线性复杂度，如大多数遍历操作</text></g></g><g id="minder_node56"><g id="node_expander53" display="none" style="cursor: pointer;"><path id="kity_path_577" fill="white" stroke="gray" d="M1396.500086966902,449.50004409626126A6,6,0,1,1,1384.500086966902,449.50004409626126A6,6,0,1,1,1396.500086966902,449.50004409626126"></path><path id="kity_path_578" fill="none" stroke="gray"></path></g><path id="node_outline54" fill="none" stroke="none" d="M1252.5000800304115,438.50004409626126h127a5,5,0,0,1,5,5v12a5,5,0,0,1,-5,5h-127a5,5,0,0,1,-5,-5v-12a5,5,0,0,1,5,-5z"></path><g id="node_text54" fill="black"><text id="kity_text_291" text-rendering="inherit" font-size="12" dy=".8em" y="441.70004400238395" x="1257.5000800304115">O(n^2) 双重 for 循环</text></g></g><g id="minder_node57"><g id="node_expander54" display="none" style="cursor: pointer;"><path id="kity_path_580" fill="white" stroke="gray" d="M1434.5000889487565,499.5000467039645A6,6,0,1,1,1422.5000889487565,499.5000467039645A6,6,0,1,1,1434.5000889487565,499.5000467039645"></path><path id="kity_path_581" fill="none" stroke="gray"></path></g><path id="node_outline55" fill="none" stroke="none" d="M1266.5000807605684,488.5000467039645h151a5,5,0,0,1,5,5v12a5,5,0,0,1,-5,5h-151a5,5,0,0,1,-5,-5v-12a5,5,0,0,1,5,-5z"></path><g id="node_text55" fill="black"><text id="kity_text_293" text-rendering="inherit" font-size="12" dy=".8em" y="491.70004661008716" x="1271.5000807605684">O(2^n) 递归的时间复杂度</text></g></g><g id="minder_node58"><g id="node_expander58" style="cursor: pointer;"><path id="kity_path_592" fill="white" stroke="gray" d="M1164.5000748671591,599.5000519193709A6,6,0,1,1,1152.5000748671591,599.5000519193709A6,6,0,1,1,1164.5000748671591,599.5000519193709"></path><path id="kity_path_593" fill="none" stroke="gray" d="M1154.0000748671591,599.5000519193709L1163.0000748671591,599.5000519193709"></path></g><path id="node_outline59" fill="none" stroke="none" d="M1075.5000707991421,588.5000519193709h72a5,5,0,0,1,5,5v12a5,5,0,0,1,-5,5h-72a5,5,0,0,1,-5,-5v-12a5,5,0,0,1,5,-5z"></path><g id="node_text59" fill="black"><text id="kity_text_301" text-rendering="inherit" font-size="12" dy=".8em" y="591.7000518254936" x="1080.5000707991421">空间复杂度</text></g></g><g id="minder_node59"><g id="node_expander56" display="none" style="cursor: pointer;"><path id="kity_path_586" fill="white" stroke="gray" d="M1323.5000831596553,558.5000497810543A6,6,0,1,1,1311.5000831596553,558.5000497810543A6,6,0,1,1,1323.5000831596553,558.5000497810543"></path><path id="kity_path_587" fill="none" stroke="gray"></path></g><path id="node_outline57" fill="none" stroke="none" d="M1219.5000783093274,547.5000497810543h87a5,5,0,0,1,5,5v12a5,5,0,0,1,-5,5h-87a5,5,0,0,1,-5,-5v-12a5,5,0,0,1,5,-5z"></path><g id="node_text57" fill="black"><text id="kity_text_297" text-rendering="inherit" font-size="12" dy=".8em" y="550.7000496871769" x="1224.5000783093274">O(1) 原地操作</text></g></g><g id="minder_node60"><g id="node_expander57" display="none" style="cursor: pointer;"><path id="kity_path_589" fill="white" stroke="gray" d="M1358.5000849850476,616.50005280599A6,6,0,1,1,1346.5000849850476,616.50005280599A6,6,0,1,1,1358.5000849850476,616.50005280599"></path><path id="kity_path_590" fill="none" stroke="gray"></path></g><path id="node_outline58" fill="none" stroke="none" d="M1206.5000776313245,605.50005280599h135a5,5,0,0,1,5,5v12a5,5,0,0,1,-5,5h-135a5,5,0,0,1,-5,-5v-12a5,5,0,0,1,5,-5z"></path><g id="node_text58" fill="black"><text id="kity_text_299" text-rendering="inherit" font-size="12" dy=".8em" y="608.7000527121127" x="1211.5000776313245">O(n) 开辟线性辅助空间 </text></g></g><g id="minder_node61"><g id="node_expander62" style="cursor: pointer;"><path id="kity_path_604" fill="white" stroke="gray" d="M1013.5000669918954,688.5000565610826A6,6,0,1,1,1001.5000669918954,688.5000565610826A6,6,0,1,1,1013.5000669918954,688.5000565610826"></path><path id="kity_path_605" fill="none" stroke="gray" d="M1003.0000669918954,688.5000565610826L1012.0000669918954,688.5000565610826"></path></g><path id="node_outline63" fill="rgb(238, 243, 246)" stroke="rgb(115, 161, 191)" d="M933.5000640191138,675.5000565610826h64a3,3,0,0,1,3,3v20a3,3,0,0,1,-3,3h-64a3,3,0,0,1,-3,-3v-20a3,3,0,0,1,3,-3z" stroke-width="1"></path><g id="node_text63" fill="black"><text id="kity_text_309" text-rendering="inherit" font-size="14" dy=".8em" y="679.4000565787156" x="950.5000640191138">数组</text></g></g><g id="minder_node62"><g id="node_expander60" display="none" style="cursor: pointer;"><path id="kity_path_598" fill="white" stroke="gray" d="M1040.5000684000552,662.5000552050769A6,6,0,1,1,1028.5000684000552,662.5000552050769A6,6,0,1,1,1040.5000684000552,662.5000552050769"></path><path id="kity_path_599" fill="none" stroke="gray"></path></g><path id="node_outline61" fill="none" stroke="none" d="M1045.5000692345202,651.5000552050769h59a5,5,0,0,1,5,5v12a5,5,0,0,1,-5,5h-59a5,5,0,0,1,-5,-5v-12a5,5,0,0,1,5,-5z"></path><g id="node_text61" fill="black"><text id="kity_text_305" text-rendering="inherit" font-size="12" dy=".8em" y="654.7000551111996" x="1050.5000692345202">连续空间</text></g></g><g id="minder_node63"><g id="node_expander61" display="none" style="cursor: pointer;"><path id="kity_path_601" fill="white" stroke="gray" d="M1040.5000684000552,714.5000579170883A6,6,0,1,1,1028.5000684000552,714.5000579170883A6,6,0,1,1,1040.5000684000552,714.5000579170883"></path><path id="kity_path_602" fill="none" stroke="gray"></path></g><path id="node_outline62" fill="none" stroke="none" d="M1045.5000692345202,703.5000579170883h149a5,5,0,0,1,5,5v12a5,5,0,0,1,-5,5h-149a5,5,0,0,1,-5,-5v-12a5,5,0,0,1,5,-5z"></path><g id="node_text62" fill="black"><text id="kity_text_307" text-rendering="inherit" font-size="12" dy=".8em" y="706.700057823211" x="1050.5000692345202">查找快、插入/删除结点慢 </text></g></g><g id="minder_node64"><g id="node_expander65" style="cursor: pointer;"><path id="kity_path_613" fill="white" stroke="gray" d="M1014.5000670440495,795.5000621415675A6,6,0,1,1,1002.5000670440495,795.5000621415675A6,6,0,1,1,1014.5000670440495,795.5000621415675"></path><path id="kity_path_614" fill="none" stroke="gray" d="M1004.0000670440495,795.5000621415675L1013.0000670440495,795.5000621415675"></path></g><path id="node_outline66" fill="rgb(238, 243, 246)" stroke="rgb(115, 161, 191)" d="M934.5000640712678,782.5000621415675h64a3,3,0,0,1,3,3v20a3,3,0,0,1,-3,3h-64a3,3,0,0,1,-3,-3v-20a3,3,0,0,1,3,-3z" stroke-width="1"></path><g id="node_text66" fill="black"><text id="kity_text_315" text-rendering="inherit" font-size="14" dy=".8em" y="786.4000621592005" x="951.5000640712678">链表</text></g></g><g id="minder_node65"><g id="node_expander63" display="none" style="cursor: pointer;"><path id="kity_path_607" fill="white" stroke="gray" d="M1041.5000684522092,769.5000607855618A6,6,0,1,1,1029.5000684522092,769.5000607855618A6,6,0,1,1,1041.5000684522092,769.5000607855618"></path><path id="kity_path_608" fill="none" stroke="gray"></path></g><path id="node_outline64" fill="none" stroke="none" d="M1046.5000692866743,758.5000607855618h58a5,5,0,0,1,5,5v12a5,5,0,0,1,-5,5h-58a5,5,0,0,1,-5,-5v-12a5,5,0,0,1,5,-5z"></path><g id="node_text64" fill="black"><text id="kity_text_311" text-rendering="inherit" font-size="12" dy=".8em" y="761.7000606916845" x="1051.5000692866743">离散空间</text></g></g><g id="minder_node66"><g id="node_expander64" display="none" style="cursor: pointer;"><path id="kity_path_610" fill="white" stroke="gray" d="M1041.5000684522092,821.5000634975731A6,6,0,1,1,1029.5000684522092,821.5000634975731A6,6,0,1,1,1041.5000684522092,821.5000634975731"></path><path id="kity_path_611" fill="none" stroke="gray"></path></g><path id="node_outline65" fill="none" stroke="none" d="M1046.5000692866743,810.5000634975731h148a5,5,0,0,1,5,5v12a5,5,0,0,1,-5,5h-148a5,5,0,0,1,-5,-5v-12a5,5,0,0,1,5,-5z"></path><g id="node_text65" fill="black"><text id="kity_text_313" text-rendering="inherit" font-size="12" dy=".8em" y="813.7000634036958" x="1051.5000692866743">查找慢，插入/删除结点快</text></g></g><g id="minder_node67"><g id="node_expander67" style="cursor: pointer;"><path id="kity_path_619" fill="white" stroke="gray" d="M1008.5000667311251,894.5000673048198A6,6,0,1,1,996.5000667311251,894.5000673048198A6,6,0,1,1,1008.5000667311251,894.5000673048198"></path><path id="kity_path_620" fill="none" stroke="gray" d="M998.0000667311251,894.5000673048198L1007.0000667311251,894.5000673048198"></path></g><path id="node_outline68" fill="rgb(238, 243, 246)" stroke="rgb(115, 161, 191)" d="M942.5000644885004,881.5000673048198h50a3,3,0,0,1,3,3v20a3,3,0,0,1,-3,3h-50a3,3,0,0,1,-3,-3v-20a3,3,0,0,1,3,-3z" stroke-width="1"></path><g id="node_text68" fill="black"><text id="kity_text_319" text-rendering="inherit" font-size="14" dy=".8em" y="885.4000673224529" x="959.5000644885004">栈</text></g></g><g id="minder_node68"><g id="node_expander66" display="none" style="cursor: pointer;"><path id="kity_path_616" fill="white" stroke="gray" d="M1035.5000681392848,894.5000673048198A6,6,0,1,1,1023.5000681392848,894.5000673048198A6,6,0,1,1,1035.5000681392848,894.5000673048198"></path><path id="kity_path_617" fill="none" stroke="gray"></path></g><path id="node_outline67" fill="none" stroke="none" d="M1040.5000689737499,883.5000673048198h59a5,5,0,0,1,5,5v12a5,5,0,0,1,-5,5h-59a5,5,0,0,1,-5,-5v-12a5,5,0,0,1,5,-5z"></path><g id="node_text67" fill="black"><text id="kity_text_317" text-rendering="inherit" font-size="12" dy=".8em" y="886.7000672109425" x="1045.5000689737499">先进后出</text></g></g><g id="minder_node69"><g id="node_expander69" style="cursor: pointer;"><path id="kity_path_625" fill="white" stroke="gray" d="M1019.5000673048198,977.5000716336071A6,6,0,1,1,1007.5000673048198,977.5000716336071A6,6,0,1,1,1019.5000673048198,977.5000716336071"></path><path id="kity_path_626" fill="none" stroke="gray" d="M1009.0000673048198,977.5000716336071L1018.0000673048198,977.5000716336071"></path></g><path id="node_outline70" fill="rgb(238, 243, 246)" stroke="rgb(115, 161, 191)" d="M941.5000644363463,964.5000716336071h62a3,3,0,0,1,3,3v20a3,3,0,0,1,-3,3h-62a3,3,0,0,1,-3,-3v-20a3,3,0,0,1,3,-3z" stroke-width="1"></path><g id="node_text70" fill="black"><text id="kity_text_323" text-rendering="inherit" font-size="14" dy=".8em" y="968.4000716512402" x="958.5000644363463">队列栈与堆</text></g></g><g id="minder_node70"><g id="node_expander68" display="none" style="cursor: pointer;"><path id="kity_path_622" fill="white" stroke="gray" d="M1046.5000687129796,977.5000716336071A6,6,0,1,1,1034.5000687129796,977.5000716336071A6,6,0,1,1,1046.5000687129796,977.5000716336071"></path><path id="kity_path_623" fill="none" stroke="gray"></path></g><path id="node_outline69" fill="none" stroke="none" d="M1051.5000695474446,966.5000716336071h59a5,5,0,0,1,5,5v12a5,5,0,0,1,-5,5h-59a5,5,0,0,1,-5,-5v-12a5,5,0,0,1,5,-5z"></path><g id="node_text69" fill="black"><text id="kity_text_321" text-rendering="inherit" font-size="12" dy=".8em" y="969.7000715397298" x="1056.5000695474446">先进先出</text></g></g><g id="minder_node71"><g id="node_expander71" style="cursor: pointer;"><path id="kity_path_631" fill="white" stroke="gray" d="M1016.5000671483576,1073.5000766403973A6,6,0,1,1,1004.5000671483576,1073.5000766403973A6,6,0,1,1,1016.5000671483576,1073.5000766403973"></path><path id="kity_path_632" fill="none" stroke="gray" d="M1006.0000671483576,1073.5000766403973L1015.0000671483576,1073.5000766403973"></path></g><path id="node_outline72" fill="rgb(238, 243, 246)" stroke="rgb(115, 161, 191)" d="M937.50006422773,1060.5000766403973h63a3,3,0,0,1,3,3v20a3,3,0,0,1,-3,3h-63a3,3,0,0,1,-3,-3v-20a3,3,0,0,1,3,-3z" stroke-width="1"></path><g id="node_text72" fill="black"><text id="kity_text_327" text-rendering="inherit" font-size="14" dy=".8em" y="1064.4000766580305" x="954.50006422773">映射</text></g></g><g id="minder_node72"><g id="node_expander70" display="none" style="cursor: pointer;"><path id="kity_path_628" fill="white" stroke="gray" d="M1043.5000685565174,1073.5000766403973A6,6,0,1,1,1031.5000685565174,1073.5000766403973A6,6,0,1,1,1043.5000685565174,1073.5000766403973"></path><path id="kity_path_629" fill="none" stroke="gray"></path></g><path id="node_outline71" fill="none" stroke="none" d="M1048.5000693909824,1062.5000766403973h144a5,5,0,0,1,5,5v12a5,5,0,0,1,-5,5h-144a5,5,0,0,1,-5,-5v-12a5,5,0,0,1,5,-5z"></path><g id="node_text71" fill="black"><text id="kity_text_325" text-rendering="inherit" font-size="12" dy=".8em" y="1065.70007654652" x="1053.5000693909824">K/V 键值对，Key 不重复</text></g></g><g id="minder_node73"><g id="node_expander73" style="cursor: pointer;"><path id="kity_path_637" fill="white" stroke="gray" d="M1018.5000672526658,1175.5000819601119A6,6,0,1,1,1006.5000672526658,1175.5000819601119A6,6,0,1,1,1018.5000672526658,1175.5000819601119"></path><path id="kity_path_638" fill="none" stroke="gray" d="M1008.0000672526658,1175.5000819601119L1017.0000672526658,1175.5000819601119"></path></g><path id="node_outline74" fill="rgb(238, 243, 246)" stroke="rgb(115, 161, 191)" d="M938.5000642798841,1162.5000819601119h64a3,3,0,0,1,3,3v20a3,3,0,0,1,-3,3h-64a3,3,0,0,1,-3,-3v-20a3,3,0,0,1,3,-3z" stroke-width="1"></path><g id="node_text74" fill="black"><text id="kity_text_331" text-rendering="inherit" font-size="14" dy=".8em" y="1166.400081977745" x="955.5000642798841">集合</text></g></g><g id="minder_node74"><g id="node_expander72" display="none" style="cursor: pointer;"><path id="kity_path_634" fill="white" stroke="gray" d="M1045.5000686608255,1175.5000819601119A6,6,0,1,1,1033.5000686608255,1175.5000819601119A6,6,0,1,1,1045.5000686608255,1175.5000819601119"></path><path id="kity_path_635" fill="none" stroke="gray"></path></g><path id="node_outline73" fill="none" stroke="none" d="M1050.5000694952905,1164.5000819601119h71a5,5,0,0,1,5,5v12a5,5,0,0,1,-5,5h-71a5,5,0,0,1,-5,-5v-12a5,5,0,0,1,5,-5z"></path><g id="node_text73" fill="black"><text id="kity_text_329" text-rendering="inherit" font-size="12" dy=".8em" y="1167.7000818662345" x="1055.5000694952905">Key 不重复</text></g></g><g id="minder_node75"><g id="node_expander78" style="cursor: pointer;"><path id="kity_path_652" fill="white" stroke="gray" d="M1021.500067409128,1304.5000886879861A6,6,0,1,1,1009.500067409128,1304.5000886879861A6,6,0,1,1,1021.500067409128,1304.5000886879861"></path><path id="kity_path_653" fill="none" stroke="gray" d="M1011.000067409128,1304.5000886879861L1020.000067409128,1304.5000886879861"></path></g><path id="node_outline79" fill="rgb(238, 243, 246)" stroke="rgb(115, 161, 191)" d="M927.5000637061894,1291.5000886879861h78a3,3,0,0,1,3,3v20a3,3,0,0,1,-3,3h-78a3,3,0,0,1,-3,-3v-20a3,3,0,0,1,3,-3z" stroke-width="1"></path><g id="node_text79" fill="black"><text id="kity_text_341" text-rendering="inherit" font-size="14" dy=".8em" y="1295.4000887056193" x="944.5000637061894">并查集</text></g></g><g id="minder_node76"><g id="node_expander74" display="none" style="cursor: pointer;"><path id="kity_path_640" fill="white" stroke="gray" d="M1048.5000688172877,1226.5000846199691A6,6,0,1,1,1036.5000688172877,1226.5000846199691A6,6,0,1,1,1048.5000688172877,1226.5000846199691"></path><path id="kity_path_641" fill="none" stroke="gray"></path></g><path id="node_outline75" fill="none" stroke="none" d="M1053.5000696517527,1215.5000846199691h60a5,5,0,0,1,5,5v12a5,5,0,0,1,-5,5h-60a5,5,0,0,1,-5,-5v-12a5,5,0,0,1,5,-5z"></path><g id="node_text75" fill="black"><text id="kity_text_333" text-rendering="inherit" font-size="12" dy=".8em" y="1218.7000845260918" x="1058.5000696517527">站队问题</text></g></g><g id="minder_node77"><g id="node_expander75" display="none" style="cursor: pointer;"><path id="kity_path_643" fill="white" stroke="gray" d="M1048.5000688172877,1278.5000873319805A6,6,0,1,1,1036.5000688172877,1278.5000873319805A6,6,0,1,1,1048.5000688172877,1278.5000873319805"></path><path id="kity_path_644" fill="none" stroke="gray"></path></g><path id="node_outline76" fill="none" stroke="none" d="M1053.5000696517527,1267.5000873319805h48a5,5,0,0,1,5,5v12a5,5,0,0,1,-5,5h-48a5,5,0,0,1,-5,-5v-12a5,5,0,0,1,5,-5z"></path><g id="node_text76" fill="black"><text id="kity_text_335" text-rendering="inherit" font-size="12" dy=".8em" y="1270.7000872381032" x="1058.5000696517527">初始化</text></g></g><g id="minder_node78"><g id="node_expander76" display="none" style="cursor: pointer;"><path id="kity_path_646" fill="white" stroke="gray" d="M1048.5000688172877,1330.5000900439918A6,6,0,1,1,1036.5000688172877,1330.5000900439918A6,6,0,1,1,1048.5000688172877,1330.5000900439918"></path><path id="kity_path_647" fill="none" stroke="gray"></path></g><path id="node_outline77" fill="none" stroke="none" d="M1053.5000696517527,1319.5000900439918h72a5,5,0,0,1,5,5v12a5,5,0,0,1,-5,5h-72a5,5,0,0,1,-5,-5v-12a5,5,0,0,1,5,-5z"></path><g id="node_text77" fill="black"><text id="kity_text_337" text-rendering="inherit" font-size="12" dy=".8em" y="1322.7000899501145" x="1058.5000696517527">查询、合并</text></g></g><g id="minder_node79"><g id="node_expander77" display="none" style="cursor: pointer;"><path id="kity_path_649" fill="white" stroke="gray" d="M1048.5000688172877,1382.5000927560031A6,6,0,1,1,1036.5000688172877,1382.5000927560031A6,6,0,1,1,1048.5000688172877,1382.5000927560031"></path><path id="kity_path_650" fill="none" stroke="gray"></path></g><path id="node_outline78" fill="none" stroke="none" d="M1053.5000696517527,1371.5000927560031h60a5,5,0,0,1,5,5v12a5,5,0,0,1,-5,5h-60a5,5,0,0,1,-5,-5v-12a5,5,0,0,1,5,-5z"></path><g id="node_text78" fill="black"><text id="kity_text_339" text-rendering="inherit" font-size="12" dy=".8em" y="1374.7000926621258" x="1058.5000696517527">路径压缩</text></g></g></g></g></svg>